<svg id="Gruppe_37951" data-name="Gruppe 37951" xmlns="http://www.w3.org/2000/svg" width="22" height="22" viewBox="0 0 22 22">
  <rect id="Rechteck_2452" data-name="Rechteck 2452" width="4" height="4" fill="currentColor"/>
  <rect id="Rechteck_2453" data-name="Rechteck 2453" width="4" height="4" transform="translate(6)" fill="currentColor"/>
  <rect id="Rechteck_2454" data-name="Rechteck 2454" width="4.001" height="4" transform="translate(12)" fill="currentColor"/>
  <rect id="Rechteck_2455" data-name="Rechteck 2455" width="4" height="4" transform="translate(18)" fill="currentColor"/>
  <rect id="Rechteck_2456" data-name="Rechteck 2456" width="4" height="4.001" transform="translate(0 5.999)" fill="currentColor"/>
  <rect id="Rechteck_2457" data-name="Rechteck 2457" width="4" height="4" transform="translate(6 6)" fill="currentColor"/>
  <rect id="Rechteck_2458" data-name="Rechteck 2458" width="4" height="4" transform="translate(12 6)" fill="currentColor"/>
  <rect id="Rechteck_2459" data-name="Rechteck 2459" width="4" height="4.001" transform="translate(18 5.999)" fill="currentColor"/>
  <rect id="Rechteck_2460" data-name="Rechteck 2460" width="4" height="4" transform="translate(0 12)" fill="currentColor"/>
  <rect id="Rechteck_2461" data-name="Rechteck 2461" width="4" height="4" transform="translate(6 12)" fill="currentColor"/>
  <rect id="Rechteck_2462" data-name="Rechteck 2462" width="4" height="4" transform="translate(12 12)" fill="currentColor"/>
  <rect id="Rechteck_2463" data-name="Rechteck 2463" width="4" height="4" transform="translate(18 12)" fill="currentColor"/>
  <rect id="Rechteck_2464" data-name="Rechteck 2464" width="4" height="4" transform="translate(0 18)" fill="currentColor"/>
  <rect id="Rechteck_2465" data-name="Rechteck 2465" width="4" height="4" transform="translate(6 18)" fill="currentColor"/>
  <rect id="Rechteck_2466" data-name="Rechteck 2466" width="4.001" height="4" transform="translate(12 18)" fill="currentColor"/>
  <rect id="Rechteck_2467" data-name="Rechteck 2467" width="4" height="4" transform="translate(18 18)" fill="currentColor"/>
</svg>
